<?xml version="1.0" standalone="no"?><!DOCTYPE svg PUBLIC "-//W3C//DTD SVG 1.1//EN" "http://www.w3.org/Graphics/SVG/1.1/DTD/svg11.dtd"><svg t="1543800883366" class="icon" style="" viewBox="0 0 1025 1024" version="1.1" xmlns="http://www.w3.org/2000/svg" p-id="2108" xmlns:xlink="http://www.w3.org/1999/xlink" width="32.03125" height="32"><defs><style type="text/css"></style></defs><path d="M796.501333 455.111111l-113.777778 0 0 113.777778 113.777778 0L796.501333 455.111111zM284.501333 0l-113.777778 0 0 227.555556 113.777778 0L284.501333 0zM796.501333 682.666667l-113.777778 0 0 113.777778 113.777778 0L796.501333 682.666667zM910.279111 113.777778l0 113.777778-56.888889 0 0 56.888889-113.777778 0L739.612444 227.555556l-56.888889 0L682.723556 113.777778l-341.333333 0 0 113.777778-56.888889 0 0 56.888889-113.777778 0L170.723556 227.555556l-56.888889 0L113.834667 113.777778l-113.777778 0 0 910.222222 1024 0L1024.056889 113.777778 910.279111 113.777778zM910.279111 910.222222l-796.444444 0L113.834667 398.222222l796.444444 0L910.279111 910.222222zM568.945778 455.111111l-113.777778 0 0 113.777778 113.777778 0L568.945778 455.111111zM341.390222 682.666667l-113.777778 0 0 113.777778 113.777778 0L341.390222 682.666667zM341.390222 455.111111l-113.777778 0 0 113.777778 113.777778 0L341.390222 455.111111zM568.945778 682.666667l-113.777778 0 0 113.777778 113.777778 0L568.945778 682.666667zM853.390222 0l-113.777778 0 0 227.555556 113.777778 0L853.390222 0z" p-id="2109"></path></svg>