<?xml version="1.0" standalone="no"?><!DOCTYPE svg PUBLIC "-//W3C//DTD SVG 1.1//EN" "http://www.w3.org/Graphics/SVG/1.1/DTD/svg11.dtd"><svg t="1543801935519" class="icon" style="" viewBox="0 0 1024 1024" version="1.1" xmlns="http://www.w3.org/2000/svg" p-id="4470" xmlns:xlink="http://www.w3.org/1999/xlink" width="32" height="32"><defs><style type="text/css"></style></defs><path d="M972.2 779.2h-61.6V307c38.7-7.9 67.9-42.3 67.9-83.3 0-46.9-38.1-85-85-85-39.1 0-72.1 26.5-82 62.5h-595c-9.9-36-42.9-62.5-82-62.5-46.9 0-85 38.1-85 85 0 40 27.8 73.6 65.1 82.6v472.9H53c-12.4 0-22.5 10.1-22.5 22.5v68.6c0 12.4 10.1 22.5 22.5 22.5h919.1c12.4 0 22.5-10.1 22.5-22.5v-68.6c0.1-12.4-10-22.5-22.4-22.5z m-78.7-595.5c22.1 0 40 17.9 40 40s-17.9 40-40 40-40-17.9-40-40 17.9-40 40-40z m-799 40c0-22.1 17.9-40 40-40s40 17.9 40 40-17.9 40-40 40-40-17.9-40-40z m65.1 81.2c27.6-8.5 49.2-30.8 56.9-58.7h595.1c7.4 27 27.8 48.6 54 57.8v475.2h-706V304.9z m790.1 542.9H75.5v-23.6h874.2v23.6z" p-id="4471"></path><path d="M740.8 384.5c-40 0-72.5 32.5-72.5 72.5 0 16 5.2 30.7 14 42.7L635 547c-12-8.8-26.8-14-42.7-14-19 0-36.3 7.4-49.3 19.4l-52.1-52.1c9-12.1 14.4-27.1 14.4-43.3 0-40-32.5-72.5-72.5-72.5S360.3 417 360.3 457c0 12.6 3.2 24.4 8.9 34.8l-50.1 50.1c-10.3-5.7-22.2-8.9-34.8-8.9-40 0-72.5 32.5-72.5 72.5s32.5 72.5 72.5 72.5 72.5-32.5 72.5-72.5c0-11-2.5-21.4-6.9-30.8l52.1-52.1c9.4 4.4 19.8 6.9 30.8 6.9 7.3 0 14.4-1.1 21.1-3.1 0.7 1.1 1.6 2.1 2.5 3l63.5 63.5c0.3 0.3 0.6 0.5 0.9 0.8-0.6 3.8-1 7.8-1 11.8 0 40 32.5 72.5 72.5 72.5s72.5-32.5 72.5-72.5c0-7.5-1.1-14.7-3.2-21.4l57.8-57.8c6.8 2.1 14 3.2 21.4 3.2 40 0 72.5-32.5 72.5-72.5s-32.5-72.5-72.5-72.5zM284.3 633c-15.2 0-27.5-12.3-27.5-27.5s12.3-27.5 27.5-27.5 27.5 12.3 27.5 27.5-12.3 27.5-27.5 27.5z m121-176c0-15.2 12.3-27.5 27.5-27.5s27.5 12.3 27.5 27.5-12.3 27.5-27.5 27.5-27.5-12.3-27.5-27.5z m187 176c-15.2 0-27.5-12.3-27.5-27.5s12.3-27.5 27.5-27.5 27.5 12.3 27.5 27.5-12.3 27.5-27.5 27.5z m148.5-148.5c-15.2 0-27.5-12.3-27.5-27.5s12.3-27.5 27.5-27.5 27.5 12.3 27.5 27.5-12.3 27.5-27.5 27.5z" p-id="4472"></path></svg>