<?xml version="1.0" standalone="no"?><!DOCTYPE svg PUBLIC "-//W3C//DTD SVG 1.1//EN" "http://www.w3.org/Graphics/SVG/1.1/DTD/svg11.dtd"><svg t="1554210302717" class="icon" style="" viewBox="0 0 1024 1024" version="1.1" xmlns="http://www.w3.org/2000/svg" p-id="1479" xmlns:xlink="http://www.w3.org/1999/xlink" width="32" height="32"><defs><style type="text/css"></style></defs><path d="M876.08888889 415.52129934H144.74596466v440.99417088c0 15.21891555 12.33047666 24.42793757 27.54453845 24.42793757H553.74885888c14.47617422 0 26.2144 13.03923712 26.2144 29.12711111s-11.73822578 29.12711111-26.2144 29.12711111H172.29050311C126.64832 939.19763001 89.65688889 902.17707179 89.65688889 856.51547022V231.79719111c0-45.66645533 36.99143111-82.68701355 82.63361422-82.68701354h36.72443222a27.55424711 27.55424711 0 0 1 27.54453845 27.56395576 27.55424711 27.55424711 0 0 1-27.54453845 27.55910201h-36.72443222a27.55424711 27.55424711 0 0 0-27.54453845 27.56395577v128.63503132H876.08888889V231.79719111c0-15.22377045-9.16533134-27.56395577-24.379392-27.56395577h-27.54453846a27.55424711 27.55424711 0 0 1-27.54453731-27.55910201 27.55424711 27.55424711 0 0 1 27.54453731-27.56395576h27.54453846c45.63732821 0 82.63361422 37.02055822 82.63361422 82.68701354V550.83614777h-0.07767268c-1.10683022 13.57323378-13.68974222 24.27259221-29.04943843 24.27259335s-27.94260821-10.69935843-29.04943843-24.27259335H876.08888889v-135.31484843zM788.70755555 793.56207445v98.6583791a27.55910201 27.55910201 0 0 1-27.559102 27.559102h-3.13601821a27.55910201 27.55910201 0 0 1-27.55910201-27.559102V793.56207445h-98.65838023a27.55910201 27.55910201 0 0 1-27.55910087-27.559102v-3.13601935a27.55910201 27.55910201 0 0 1 27.55910087-27.55910087H730.45333333v-98.65838023a27.55910201 27.55910201 0 0 1 27.55910201-27.55910201h3.13601821a27.55910201 27.55910201 0 0 1 27.559102 27.55910201V735.30785223h98.65838024a27.55910201 27.55910201 0 0 1 27.55910087 27.55910087v3.13601935a27.55910201 27.55910201 0 0 1-27.55910087 27.559102H788.70755555zM300.82844445 84.80236999a27.54453845 27.54453845 0 0 1 27.54453845 27.54453846v114.87247132a27.54453845 27.54453845 0 1 1-55.08907691 0V112.34690845A27.54453845 27.54453845 0 0 1 300.82844445 84.80236999z m422.3431111 0a27.54453845 27.54453845 0 0 1 27.54453846 27.54453846v114.87247132a27.54453845 27.54453845 0 1 1-55.08907691 0V112.34690845A27.54453845 27.54453845 0 0 1 723.17155555 84.80236999z m-64.17673443 91.87176334a27.54453845 27.54453845 0 0 1-27.54453845 27.54453846H392.54971733a27.54453845 27.54453845 0 1 1 0-55.08907691h238.90056534a27.54453845 27.54453845 0 0 1 27.54453845 27.54453845z" p-id="1480" fill="#2c2c2c"></path></svg>