<?xml version="1.0" standalone="no"?><!DOCTYPE svg PUBLIC "-//W3C//DTD SVG 1.1//EN" "http://www.w3.org/Graphics/SVG/1.1/DTD/svg11.dtd"><svg t="1543801425941" class="icon" style="" viewBox="0 0 1024 1024" version="1.1" xmlns="http://www.w3.org/2000/svg" p-id="4973" xmlns:xlink="http://www.w3.org/1999/xlink" width="32" height="32"><defs><style type="text/css"></style></defs><path d="M753.152 328.704H429.056c-25.6 0-46.08-20.48-46.08-46.08s20.48-46.08 46.08-46.08h324.096c25.6 0 46.08 20.48 46.08 46.08s-20.992 46.08-46.08 46.08m0 231.424H429.056c-25.6 0-46.08-20.48-46.08-46.08s20.48-46.08 46.08-46.08h324.096c25.6 0 46.08 20.48 46.08 46.08s-20.992 46.08-46.08 46.08m0 231.424H429.056c-25.6 0-46.08-20.48-46.08-46.08s20.48-46.08 46.08-46.08h324.096c25.6 0 46.08 20.48 46.08 46.08s-20.992 46.08-46.08 46.08M277.504 328.704c-25.6 0-46.08-20.48-46.08-46.08s20.48-46.08 46.08-46.08 46.08 20.48 46.08 46.08c0.512 25.6-20.48 46.08-46.08 46.08m0 231.424c-24.576-1.024-44.032-21.504-44.032-46.08s19.456-45.056 44.032-46.08c25.6 0 46.08 20.48 46.08 46.08 0.512 25.6-20.48 46.08-46.08 46.08m0 231.424c-24.576-1.024-44.032-21.504-44.032-46.08s19.456-45.056 44.032-46.08c25.6 0 46.08 20.48 46.08 46.08 0.512 25.6-20.48 46.08-46.08 46.08M925.184 4.608H92.16C41.472 5.12 0 46.08 0 96.768v833.536c0 50.688 41.472 92.16 92.16 92.16h834.048c50.688 0 92.16-41.472 92.16-92.16V96.768c-0.512-50.688-41.984-92.16-93.184-92.16" p-id="4974"></path></svg>