<?xml version="1.0" standalone="no"?><!DOCTYPE svg PUBLIC "-//W3C//DTD SVG 1.1//EN" "http://www.w3.org/Graphics/SVG/1.1/DTD/svg11.dtd"><svg t="1543802367827" class="icon" style="" viewBox="0 0 1024 1024" version="1.1" xmlns="http://www.w3.org/2000/svg" p-id="6780" xmlns:xlink="http://www.w3.org/1999/xlink" width="32" height="32"><defs><style type="text/css"></style></defs><path d="M886.4 691.2L700.8 752c-6.4 3.2-9.6 6.4-9.6 12.8s0 12.8 6.4 16l41.6 35.2c-67.2 57.6-153.6 89.6-240 89.6C294.4 902.4 128 739.2 128 534.4c0-25.6-22.4-48-48-48s-48 22.4-48 48c0 256 208 464 464 464 112 0 224-41.6 307.2-115.2l6.4-6.4 35.2 28.8c3.2 3.2 6.4 3.2 9.6 3.2h6.4c6.4-3.2 9.6-6.4 9.6-12.8l38.4-188.8c0-6.4 0-12.8-6.4-16-3.2-3.2-9.6-3.2-16 0z" p-id="6781"></path><path d="M950.4 44.8c-19.2-16-51.2-16-67.2 6.4l-409.6 480L259.2 400c-22.4-16-51.2-6.4-64 16-12.8 22.4-6.4 51.2 16 67.2l249.6 150.4c6.4 3.2 16 6.4 25.6 6.4 12.8 0 28.8-6.4 35.2-16l435.2-512c16-22.4 16-51.2-6.4-67.2z" p-id="6782"></path><path d="M86.4 364.8c3.2 3.2 9.6 3.2 16 3.2l179.2-67.2c6.4-3.2 9.6-9.6 9.6-12.8 0-6.4 0-12.8-6.4-16l-35.2-28.8c64-51.2 144-76.8 224-76.8 76.8 0 144 22.4 204.8 60.8l64-73.6C665.6 99.2 576 67.2 476.8 67.2c-112 0-217.6 38.4-300.8 112l-38.4-32c-6.4-3.2-12.8-3.2-19.2-3.2-6.4 3.2-9.6 9.6-9.6 12.8L80 348.8v9.6l6.4 6.4z m713.6 0c25.6 51.2 41.6 108.8 41.6 169.6 0 25.6 22.4 48 48 48s48-22.4 48-48c0-89.6-25.6-172.8-70.4-246.4L800 364.8z" p-id="6783"></path></svg>