<?xml version="1.0" standalone="no"?><!DOCTYPE svg PUBLIC "-//W3C//DTD SVG 1.1//EN" "http://www.w3.org/Graphics/SVG/1.1/DTD/svg11.dtd"><svg t="1543802098797" class="icon" style="" viewBox="0 0 1024 1024" version="1.1" xmlns="http://www.w3.org/2000/svg" p-id="5206" xmlns:xlink="http://www.w3.org/1999/xlink" width="32" height="32"><defs><style type="text/css"></style></defs><path d="M341.34 85.33H1024v85.33H341.34zM128 256c70.4 0 128-57.6 128-128S198.4 0 128 0 0 57.6 0 128s57.6 128 128 128zM0 469.34h298.67v85.33H0zM725.33 469.34H1024v85.33H725.33zM640 512c0-70.4-57.6-128-128-128s-128 57.6-128 128 57.6 128 128 128 128-57.6 128-128zM0 853.34h682.67v85.33H0zM896 768c-70.41 0-128 57.6-128 128s57.6 128 128 128 128-57.6 128-128-57.6-128-128-128z" p-id="5207"></path></svg>