<?xml version="1.0" standalone="no"?><!DOCTYPE svg PUBLIC "-//W3C//DTD SVG 1.1//EN" "http://www.w3.org/Graphics/SVG/1.1/DTD/svg11.dtd"><svg t="1543801201973" class="icon" style="" viewBox="0 0 1040 1024" version="1.1" xmlns="http://www.w3.org/2000/svg" p-id="3392" xmlns:xlink="http://www.w3.org/1999/xlink" width="32.5" height="32"><defs><style type="text/css"></style></defs><path d="M954.758095 1019.448889a43.755683 43.755683 0 0 1-31.045079-12.856889L428.942222 511.83746a43.901968 43.901968 0 0 1 62.090159-62.090158L985.786921 944.518095a43.885714 43.885714 0 0 1-31.04508 74.947048zM643.185778 943.055238H74.459429V180.419048h85.365841c20.545016 0 37.221587-17.099175 37.221587-38.196826S180.370286 104.025397 159.82527 104.025397H37.221587C16.660317 104.025397 0 121.124571 0 142.222222v839.029841c0 21.097651 16.660317 38.196825 37.221587 38.196826h605.964191c20.56127 0 37.221587-17.099175 37.221587-38.196826s-16.660317-38.196825-37.221587-38.196825zM1040.058921 138.32127c-1.901714-19.260952-17.749333-34.295873-37.02654-34.295873h-122.603683c-20.545016 0-37.221587 17.099175-37.221587 38.196825s16.676571 38.196825 37.221587 38.196826h85.382096v607.492063c0 21.097651 16.660317 38.196825 37.221587 38.196826 20.56127 0 37.221587-17.099175 37.221587-38.196826V142.222222c0-1.300317-0.065016-2.616889-0.195047-3.900952zM661.211429 104.025397H379.04254c-20.56127 0-37.221587 17.099175-37.221588 38.196825s16.660317 38.196825 37.221588 38.196826h282.168889c20.56127 0 37.221587-17.099175 37.221587-38.196826S681.772698 104.025397 661.211429 104.025397z" p-id="3393"></path><path d="M265.118476 291.271111c20.041143 0 36.278857-17.099175 36.278857-38.196825V38.196825c0-21.097651-16.253968-38.196825-36.278857-38.196825-20.024889 0-36.262603 17.099175-36.262603 38.196825v214.877461c0 21.097651 16.237714 38.196825 36.262603 38.196825zM754.346667 0c-20.041143 0-36.278857 17.099175-36.278857 38.196825v214.877461c0 21.097651 16.253968 38.196825 36.278857 38.196825 20.024889 0 36.262603-17.099175 36.262603-38.196825V38.196825c0-21.097651-16.253968-38.196825-36.262603-38.196825z" p-id="3394"></path></svg>