<?xml version="1.0" standalone="no"?><!DOCTYPE svg PUBLIC "-//W3C//DTD SVG 1.1//EN" "http://www.w3.org/Graphics/SVG/1.1/DTD/svg11.dtd"><svg t="1543996741888" class="icon" style="" viewBox="0 0 1063 1024" version="1.1" xmlns="http://www.w3.org/2000/svg" p-id="2426" xmlns:xlink="http://www.w3.org/1999/xlink" width="33.21875" height="32"><defs><style type="text/css"></style></defs><path d="M407.551998 40.96l614.399997 0 0 286.719998-614.399997 0 0-286.719998Z" p-id="2427"></path><path d="M407.551998 368.639998l614.399997 0 0 286.719998-614.399997 0 0-286.719998Z" p-id="2428"></path><path d="M407.551998 696.319996l614.399997 0 0 286.719998-614.399997 0 0-286.719998Z" p-id="2429"></path><path d="M325.631998 141.885439 241.745919 225.812479 243.711999 227.778559 185.794559 285.695998 183.828479 283.729918 180.797439 286.719998 122.879999 228.802559 125.870079 225.812479 40.96 140.861439 98.877439 82.944 183.828479 167.854079 267.714559 83.968 325.631998 141.885439Z" p-id="2430"></path><path d="M325.631998 469.565438 241.745919 553.492477 243.711999 555.458557 185.794559 613.375997 183.828479 611.409917 180.797439 614.399997 122.879999 556.482557 125.870079 553.492477 40.96 468.541438 98.877439 410.623998 183.828479 495.534077 267.714559 411.647998 325.631998 469.565438Z" p-id="2431"></path><path d="M325.631998 797.245436 241.745919 881.172475 243.711999 883.138555 185.794559 941.055995 183.828479 939.089915 180.797439 942.079995 122.879999 884.162555 125.870079 881.172475 40.96 796.221436 98.877439 738.303996 183.828479 823.214076 267.714559 739.327996 325.631998 797.245436Z" p-id="2432"></path></svg>