<?xml version="1.0" standalone="no"?><!DOCTYPE svg PUBLIC "-//W3C//DTD SVG 1.1//EN" "http://www.w3.org/Graphics/SVG/1.1/DTD/svg11.dtd"><svg t="1540363428985" class="icon" style="" viewBox="0 0 1024 1024" version="1.1" xmlns="http://www.w3.org/2000/svg" p-id="594" xmlns:xlink="http://www.w3.org/1999/xlink" width="128" height="128"><defs><style type="text/css"></style></defs><path d="M881.152 416l-94.288-32v544H221.152V384l-94.288 32L64 224l188.576-128s41.872-0.576 101.424 0c9.712 9.504 104.16 80 158 80 56.208 0 148.8-80 151.008-80h92.432L944 224z m-144.752-256h-75.2c-35.504 34.848-70.4 80-157.136 80s-123.2-46.16-157.136-80h-75.2l-130.432 88.448 21.904 87.76 38.048-12.912a61.904 61.904 0 0 1 56.64 8.8A64.384 64.384 0 0 1 284 384v480h440V384a64.384 64.384 0 0 1 26.096-51.92 61.904 61.904 0 0 1 56.64-8.8l38.064 12.928 21.904-87.76z" p-id="595" fill="#ffffff"></path></svg>