<?xml version="1.0" standalone="no"?><!DOCTYPE svg PUBLIC "-//W3C//DTD SVG 1.1//EN" "http://www.w3.org/Graphics/SVG/1.1/DTD/svg11.dtd"><svg t="1543802672927" class="icon" style="" viewBox="0 0 1024 1024" version="1.1" xmlns="http://www.w3.org/2000/svg" p-id="8979" xmlns:xlink="http://www.w3.org/1999/xlink" width="32" height="32"><defs><style type="text/css"></style></defs><path d="M984.064 600.064L576 1008.64h408.576l-0.512-408.576z m-178.688 375.808l-72.192-72.192 27.136-27.136 45.056 45.056 125.952-125.952 27.136 27.136-153.088 153.088zM887.808 72.192h-75.264V34.304c0-20.992-16.896-25.6-37.888-25.6-20.992 0-37.888 4.608-37.888 25.6v37.888H284.16V34.304c0-20.992-16.896-25.6-37.888-25.6-20.992 0-37.888 4.608-37.888 25.6v37.888H133.12c-41.472 0-75.264 33.792-75.264 75.264v754.688c0 41.472 33.792 75.264 75.264 75.264h421.376l75.264-75.264H133.12V222.72h754.688v421.376l75.264-75.264V147.456c0-41.472-33.792-75.264-75.264-75.264zM705.536 826.368l106.496-106.496-106.496 106.496z" fill="" p-id="8980"></path><path d="M548.352 600.064v226.304h157.184l106.496-106.496v-119.808zM208.384 600.064h264.192v226.304H208.384zM548.352 298.496h264.192v226.304h-264.192zM208.384 298.496h264.192v226.304H208.384z" fill="" p-id="8981"></path></svg>