<?xml version="1.0" standalone="no"?><!DOCTYPE svg PUBLIC "-//W3C//DTD SVG 1.1//EN" "http://www.w3.org/Graphics/SVG/1.1/DTD/svg11.dtd"><svg t="1543805417506" class="icon" style="" viewBox="0 0 1024 1024" version="1.1" xmlns="http://www.w3.org/2000/svg" p-id="12920" xmlns:xlink="http://www.w3.org/1999/xlink" width="32" height="32"><defs><style type="text/css"></style></defs><path d="M650.789715 23.021358c1.534655 0 0-1.150991 0 0z" fill="#323333" p-id="12921"></path><path d="M1023.519018 494.352236V410.521714a12.660903 12.660903 0 0 0-12.852735-12.660903h-105.507522c-62.345354 0-76.732744-38.366372-33.378744-82.871363s74.622593-76.732744 74.622593-76.732744a14.003726 14.003726 0 0 0 0-19.183186s-28.774779-30.693098-70.785956-72.704275-72.128779-71.16962-72.128779-71.169619a14.003726 14.003726 0 0 0-19.183186 0s-33.570575 30.884929-77.691903 74.814425-81.720372 29.158443-81.720372-32.99508V12.662437a12.469071 12.469071 0 0 0-12.660903-12.660902H409.273404a12.660903 12.660903 0 0 0-12.660903 12.660902v103.972868c0 62.153522-35.297062 76.732744-79.418389 33.186912S241.996023 76.734278 241.996023 76.734278a13.811894 13.811894 0 0 0-19.183186 0s-29.350274 27.240124-71.361452 69.251302-70.977788 72.128779-70.977788 72.128779a13.811894 13.811894 0 0 0 0 19.183186s31.076761 33.954239 75.198089 77.883735 28.582947 83.063195-33.762407 83.063195H14.483437c-14.579221 0-14.387389 10.35892-14.387389 12.469071v198.354142a12.852735 12.852735 0 0 0 12.852735 12.852735h109.152328c62.537186 0 76.732744 37.023549 33.378743 81.144876l-74.814425 74.622594a13.236398 13.236398 0 0 0 0 19.183185s28.966611 29.92577 71.16962 71.745116 72.320611 70.402292 72.320611 70.402292a13.42823 13.42823 0 0 0 19.183186 0s30.884929-30.309434 75.006257-74.238929 79.226558-29.158443 79.226558 33.186911v112.988966a13.044566 13.044566 0 0 0 12.852734 13.044566h200.656125a13.044566 13.044566 0 0 0 12.852735-13.044566v-112.797134c0-62.153522 38.366372-76.732744 82.487699-33.186911s76.732744 74.814425 76.732744 74.814425a13.811894 13.811894 0 0 0 19.183186 0s30.309434-28.966611 72.512443-70.977788 71.16962-72.128779 71.16962-72.128779a13.044566 13.044566 0 0 0 0-19.183186l-74.622594-74.047098c-44.121328-43.929496-29.158443-78.267399 33.186912-78.267399h105.507523a13.044566 13.044566 0 0 0 12.852734-13.044566v-92.079293-25.705469zM510.752458 702.297972a191.831859 191.831859 0 1 1 191.831859-191.83186 191.831859 191.831859 0 0 1-191.831859 191.83186z" fill="#323333" p-id="12922"></path></svg>