<?xml version="1.0" standalone="no"?><!DOCTYPE svg PUBLIC "-//W3C//DTD SVG 1.1//EN" "http://www.w3.org/Graphics/SVG/1.1/DTD/svg11.dtd"><svg t="1543996856978" class="icon" style="" viewBox="0 0 1024 1024" version="1.1" xmlns="http://www.w3.org/2000/svg" p-id="3563" xmlns:xlink="http://www.w3.org/1999/xlink" width="32" height="32"><defs><style type="text/css"></style></defs><path d="M958.926936 633.831766c1.284249 7.694239 0.963954 16.989953-0.962931 27.891234-1.921769 10.902304-5.126764 21.963221-9.616008 33.17968-4.486174 11.222599-9.93835 21.319561-16.349363 30.29498-6.411013 8.978489-13.464663 15.390525-21.158902 19.238157-7.691169 3.847631-14.423501 5.7694-20.198018 5.7694-5.7694 0-12.180414-1.284249-19.23304-3.848655-6.411013-1.920746-14.427594-3.685949-24.044626-5.287423-9.616008-1.604544-19.393699-1.925862-29.332049-0.962931-9.93835 0.962931-19.875676 3.045359-29.814026 6.250354-9.93835 3.206018-18.435884 8.658194-25.489534 16.349363-15.385409 16.028045-24.364921 34.30327-26.928303 54.82056-2.564405 20.518313 0.320295 40.072671 8.658194 58.669214 6.411013 12.82305 5.447059 25.645077-2.8847 38.468127-3.848655 5.131881-9.942443 10.419304-18.276249 15.871479-8.336876 5.449106-17.47193 10.414187-27.409257 14.905478-9.93835 4.489244-20.357654 8.016581-31.257911 10.578939-10.897188 2.564405-20.518313 3.848655-28.851095 3.848655-5.7694 0-11.221576-2.243087-16.34834-6.733355-5.131881-4.489244-8.658194-9.295714-10.579963-14.427594l-0.962931 0c-7.05365-19.875676-19.073404-37.027311-36.06438-51.454906-16.990976-14.422478-36.707017-21.636786-59.150168-21.636786-21.796422 0-41.511439 7.214309-59.146075 21.636786-17.632589 14.427594-29.973662 31.257911-37.027311 50.491974-3.204995 7.695263-8.016581 13.304004-14.427594 16.830317-6.411013 3.526313-13.464663 5.29254-21.158902 5.29254-8.975419 0-19.073404-1.605567-30.29498-4.811586-11.217483-3.206018-22.439058-7.214309-33.661657-12.019755-11.217483-4.811586-21.315468-10.419304-30.29498-16.830317-8.974395-6.411013-15.706727-12.82305-20.196994-19.234063-3.204995-4.489244-4.966105-9.781784-5.287423-15.872502-0.320295-6.089695 2.082428-14.582113 7.214309-25.484418 7.05365-14.747889 9.777691-31.578206 8.172123-50.490951-1.600451-18.917862-9.777691-36.390815-24.526603-52.41886-8.974395-9.616008-19.875676-15.868409-32.697703-18.752086-12.82305-2.8847-25.003464-4.00829-36.546358-3.365654-13.464663 0.642636-27.249621 3.206018-41.35692 7.695263-8.974395 2.564405-17.949814 1.921769-26.928303-1.926886-7.05365-2.563382-13.625322-8.492418-19.715017-17.793248-6.090718-9.295714-11.542894-19.554358-16.349363-30.776957-4.811586-11.216459-8.497535-22.759353-11.06194-34.619472-2.564405-11.864212-3.204995-21.641903-1.921769-29.336142 1.921769-14.102183 8.332782-23.080671 19.234063-26.929326 19.234063-7.691169 36.546358-20.357654 51.935859-37.985126 15.386432-17.633612 23.082718-37.34863 23.082718-59.150168 0-22.439058-7.695263-41.99444-23.082718-58.664098-15.390525-16.674775-32.701796-28.855188-51.935859-36.550451-5.7694-1.920746-10.579963-6.570649-14.427594-13.945617-3.847631-7.368828-5.7694-14.904455-5.7694-22.599717 0-8.331759 1.284249-17.632589 3.847631-27.891234 2.564405-10.259668 5.930059-20.198018 10.099009-29.814026 4.168949-9.616008 8.974395-18.430768 14.427594-26.447349 5.448082-8.016581 11.377118-13.945617 17.789155-17.794271 5.131881-3.204995 10.099009-4.485151 14.909571-3.847631 4.805446 0.641613 10.097986 1.926886 15.866363 3.847631 19.238157 7.695263 39.274492 10.099009 60.107983 7.214309 20.838607-2.8847 39.275515-12.019755 55.30356-27.411303 7.695263-7.690146 13.304004-17.151635 16.830317-28.369118 3.526313-11.221576 5.7694-22.282492 6.731308-33.178657 0.962931-10.902304 0.962931-20.838607 0-29.819143-0.962931-8.974395-1.76111-15.385409-2.402723-19.234063-1.283226-3.847631-2.407839-8.331759-3.365654-13.46364-0.962931-5.127787-0.480954-9.618055 1.440815-13.464663 3.847631-8.975419 10.739599-16.830317 20.677948-23.562649 9.93835-6.733355 20.677948-12.341073 32.220842-16.830317 11.537777-4.490268 22.760376-7.856945 33.661657-10.099009 10.896164-2.242064 19.554358-3.365654 25.965371-3.365654 8.337899 0 14.909571 2.724041 19.715017 8.17724 4.811586 5.447059 8.17724 11.056823 10.099009 16.830317 7.05365 17.307178 18.596544 32.537044 34.623565 45.681412 16.028045 13.143345 34.945907 19.715017 56.742329 19.715017 22.439058 0 42.319851-6.250354 59.627029-18.752086 17.312294-12.505825 29.496801-28.373211 36.550451-47.607274 2.564405-5.131881 6.571672-10.419304 12.019755-15.867386 5.449106-5.453199 11.06194-8.17724 16.830317-8.17724 8.975419 0 18.757203 1.284249 29.333072 3.847631 10.578939 2.564405 20.998243 6.090718 31.257911 10.579963 10.258645 4.485151 19.715017 10.258645 28.372188 17.312294 8.655124 7.05365 15.547091 14.744819 20.678972 23.080671 3.204995 5.126764 4.163833 10.740622 2.8847 16.830317-1.284249 6.090718-2.564405 10.419304-3.848655 12.983709-8.336876 18.591427-10.900258 38.150902-7.694239 58.668191 3.204995 20.513196 12.505825 38.468127 27.892257 53.857629 15.385409 15.386432 34.302247 23.883967 56.742329 25.484418 22.443152 1.605567 43.277666-2.081405 62.515822-11.06194 5.126764-3.204995 11.377118-4.485151 18.751063-3.847631 7.374968 0.641613 13.625322 3.526313 18.757203 8.658194 9.616008 8.975419 18.110473 22.599717 25.484418 40.875966 7.373944 18.270109 12.341073 36.705993 14.908548 55.29742 1.280156 10.900258-0.480954 19.399839-5.29254 25.488511-4.805446 6.090718-9.776667 10.099009-14.904455 12.019755-19.880793 7.05365-36.870746 19.399839-50.972928 37.027311-14.107299 17.633612-21.158902 37.668924-21.158902 60.114123 0 21.796422 5.929036 40.869826 17.793248 57.223283 11.859096 16.34834 27.409257 28.046776 46.64332 35.100426 4.486174 2.564405 8.332782 5.131881 11.537777 7.695263C951.552991 617.482403 956.363554 624.856347 958.926936 633.831766L958.926936 633.831766zM511.715521 720.391191c28.850072 0 56.100716-5.452175 81.745792-16.349363 25.64917-10.900258 47.927569-25.970488 66.844407-45.204551 18.911722-19.23304 33.822316-41.516556 44.718481-66.840314 10.900258-25.327852 16.349363-52.41886 16.349363-81.268932 0-28.855188-5.449106-55.94415-16.349363-81.267908-10.896164-25.328875-25.805736-47.447639-44.718481-66.360384-18.916838-18.916838-41.196261-33.821293-66.844407-44.722574-25.645077-10.900258-52.894697-16.34834-81.745792-16.34834-28.855188 0-55.945173 5.447059-81.268932 16.34834-25.327852 10.902304-47.446615 25.805736-66.363454 44.722574-18.913768 18.911722-33.822316 41.030485-44.718481 66.360384-10.900258 25.323758-16.35448 52.41272-16.35448 81.267908 0 28.850072 5.453199 55.94108 16.35448 81.268932 10.896164 25.323758 25.804712 47.607274 44.718481 66.840314 18.916838 19.234063 41.035602 34.30327 66.363454 45.204551C455.770348 714.939015 482.861356 720.391191 511.715521 720.391191L511.715521 720.391191zM511.715521 720.391191" p-id="3564"></path></svg>